<?xml version="1.0" standalone="no"?>
<!DOCTYPE svg PUBLIC "-//W3C//DTD SVG 20010904//EN"
 "http://www.w3.org/TR/2001/REC-SVG-20010904/DTD/svg10.dtd">
<svg version="1.0" xmlns="http://www.w3.org/2000/svg"
 width="1024.000000pt" height="1024.000000pt" viewBox="0 0 1024.000000 1024.000000"
 preserveAspectRatio="xMidYMid meet">

<g transform="translate(0.000000,1024.000000) scale(0.100000,-0.100000)"
fill="#000000" stroke="none">
<path d="M4849 7863 c-6 -16 -79 -190 -164 -388 -84 -198 -167 -394 -185 -435
-86 -201 -326 -769 -447 -1055 -210 -498 -283 -671 -396 -935 -57 -135 -143
-338 -191 -451 -110 -260 -163 -348 -280 -464 -72 -72 -108 -99 -176 -133
-131 -65 -184 -73 -500 -79 l-275 -5 -155 -366 c-85 -201 -157 -371 -158 -379
-3 -12 87 -14 610 -10 578 3 618 5 703 24 208 48 399 152 556 302 176 167 262
304 413 660 105 248 271 642 496 1176 67 160 154 364 192 455 38 91 107 255
153 365 45 110 115 277 155 370 40 94 98 233 130 310 32 77 104 250 160 385
127 304 270 661 270 672 0 4 -203 8 -450 8 l-450 0 -11 -27z"/>
<path d="M6243 7878 c-5 -7 -18 -33 -27 -58 -10 -25 -69 -169 -131 -320 -62
-151 -223 -543 -358 -870 -135 -327 -347 -842 -472 -1145 -125 -302 -316 -766
-425 -1030 -109 -264 -271 -655 -360 -870 -89 -214 -164 -398 -167 -407 -5
-17 86 -18 1815 -18 l1820 0 70 188 c39 103 109 288 156 412 47 124 86 231 86
238 0 9 -279 12 -1360 12 -748 0 -1360 2 -1360 4 0 2 9 26 21 53 66 152 484
1149 849 2028 144 347 368 884 497 1195 130 311 238 573 241 583 4 16 -22 17
-441 17 -344 0 -447 -3 -454 -12z"/>
</g>
</svg>
